<?xml version="1.0" standalone="no"?>
<!DOCTYPE svg PUBLIC "-//W3C//DTD SVG 20010904//EN"
 "http://www.w3.org/TR/2001/REC-SVG-20010904/DTD/svg10.dtd">
<svg version="1.0" xmlns="http://www.w3.org/2000/svg"
 width="500.000000pt" height="500.000000pt" viewBox="0 0 500.000000 500.000000"
 preserveAspectRatio="xMidYMid meet">
<metadata>
Created by potrace 1.14, written by Peter Selinger 2001-2017
</metadata>
<g transform="translate(0.000000,500.000000) scale(0.100000,-0.100000)"
fill="#000000" stroke="none">
<path d="M2298 4995 c-2 -1 -30 -5 -63 -9 -75 -7 -133 -15 -165 -21 -14 -3
-41 -7 -60 -10 -167 -26 -425 -114 -630 -214 -130 -64 -142 -71 -265 -152
-384 -252 -699 -619 -887 -1034 -98 -216 -174 -464 -194 -637 -4 -29 -8 -56
-10 -59 -10 -18 -19 -189 -19 -364 0 -200 6 -289 25 -397 24 -139 30 -167 50
-243 160 -602 524 -1110 1040 -1449 123 -81 224 -135 400 -213 107 -48 317
-112 490 -149 136 -29 310 -42 525 -39 127 2 246 6 265 9 19 4 67 11 105 17
39 6 79 13 90 15 11 2 31 6 45 9 69 13 287 78 370 110 179 70 400 187 520 273
133 97 160 118 253 202 310 280 548 639 680 1030 102 300 132 491 132 830 0
267 -15 403 -71 625 -220 881 -912 1577 -1784 1795 -63 16 -132 31 -154 34
-21 4 -41 8 -45 10 -3 2 -33 7 -66 11 -33 3 -89 10 -125 14 -60 8 -444 13
-452 6z m932 -1043 c372 -92 631 -337 734 -697 51 -173 55 -395 12 -584 -22
-95 -93 -252 -153 -335 -123 -171 -298 -303 -496 -373 -187 -67 -241 -70
-1013 -71 -698 -1 -734 -3 -793 -40 -118 -75 -154 -266 -72 -381 78 -109 270
-119 369 -21 48 48 69 97 81 191 1 4 80 7 177 7 l176 0 -6 -65 c-8 -77 -46
-197 -83 -260 -14 -25 -52 -71 -84 -102 -125 -125 -322 -182 -534 -157 -195
23 -362 138 -440 301 -43 92 -58 161 -58 265 1 308 195 528 518 589 28 6 350
10 735 11 377 0 703 3 725 6 107 15 239 63 320 118 67 45 181 172 218 242 144
275 95 647 -113 854 -86 87 -217 156 -340 179 -77 14 -273 7 -340 -13 -251
-75 -438 -288 -491 -561 -5 -27 -12 -63 -15 -80 -4 -16 -7 -136 -8 -265 l-2
-235 -169 -1 c-94 0 -174 1 -180 3 -20 7 -8 524 15 602 5 17 9 35 9 39 1 26
39 159 63 217 32 78 95 189 142 250 89 116 241 237 373 296 76 35 218 77 287
85 28 4 53 8 55 10 2 2 70 2 150 0 103 -3 171 -10 231 -24z"/>
</g>
</svg>
